<?xml version="1.0" encoding="UTF-8"?>
<svg xmlns="http://www.w3.org/2000/svg" version="1.1" viewBox="0 0 132.8 107.8">
  <defs>
    <style>
      .cls-1 {
        fill: #fff;
      }

      .cls-2 {
        fill: #ea7600;
      }

      .cls-3 {
        fill: #265787;
      }
    </style>
  </defs>
  <!-- Generator: Adobe Illustrator 28.6.0, SVG Export Plug-In . SVG Version: 1.2.0 Build 709)  -->
  <g>
    <g id="Layer_2">
      <g>
        <path class="cls-1" d="M52.2,59.9c.5-8.6,4.7-16.2,11.1-21.6,6.3-5.3,14.7-8.5,23.8-8.5s17.6,3.2,23.8,8.5c6.4,5.4,10.6,13,11.1,21.6.5,8.9-3.1,17.1-9.3,23.2-6.4,6.2-15.4,10.1-25.6,10.1s-19.2-3.9-25.6-10.1c-6.3-6.1-9.8-14.3-9.3-23.2Z"/>
        <path class="cls-3" d="M69.2,60.6c.2-4.4,2.4-8.3,5.7-11.1,3.2-2.7,7.5-4.4,12.2-4.4s9,1.7,12.2,4.4c3.3,2.8,5.4,6.7,5.7,11.1.2,4.5-1.6,8.8-4.8,11.9-3.3,3.2-7.9,5.2-13.1,5.2s-9.9-2-13.1-5.2c-3.2-3.1-5-7.4-4.8-11.9Z"/>
        <path class="cls-2" d="M40.7,69.6c0,1.7.6,5.1,1.4,7.7,1.7,5.6,4.7,10.7,8.8,15.3,4.2,4.7,9.4,8.4,15.4,11.1,6.3,2.8,13.1,4.2,20.2,4.2,7.1,0,13.9-1.5,20.2-4.3,6-2.7,11.2-6.4,15.4-11.1,4.1-4.6,7.1-9.7,8.8-15.3.9-2.8,1.4-5.7,1.7-8.5.2-2.8.1-5.6-.3-8.5-.8-5.5-2.7-10.7-5.6-15.4-2.7-4.3-6.1-8.1-10.2-11.3h0S75,1.6,75,1.6c0,0,0,0-.1,0-2.7-2.1-7.3-2.1-10.3,0-3,2.1-3.4,5.6-.7,7.8h0s17.3,14.1,17.3,14.1H28.5c0,0,0,0,0,0-4.4,0-8.5,2.9-9.4,6.5-.9,3.7,2.1,6.7,6.6,6.8h0s26.7,0,26.7,0L4.8,73.3c0,0-.1,0-.2.1-4.5,3.4-6,9.2-3.1,12.8,2.9,3.7,9,3.7,13.5,0l26-21.3s-.4,2.9-.3,4.6ZM107.5,79.2c-5.4,5.5-12.9,8.6-21,8.6-8.1,0-15.6-3.1-21-8.5-2.6-2.7-4.5-5.7-5.7-9-1.2-3.2-1.6-6.6-1.3-10,.3-3.4,1.3-6.5,2.9-9.4,1.6-2.8,3.7-5.4,6.4-7.6,5.2-4.2,11.8-6.5,18.8-6.6,6.9,0,13.6,2.3,18.8,6.5,2.7,2.2,4.8,4.7,6.4,7.6,1.6,2.9,2.6,6.1,2.9,9.4.3,3.4-.2,6.8-1.3,10-1.2,3.3-3.1,6.3-5.7,9Z"/>
      </g>
    </g>
  </g>
</svg>